<?xml version="1.0" encoding="UTF-8" standalone="no"?>
<!DOCTYPE svg PUBLIC "-//W3C//DTD SVG 1.1//EN" "http://www.w3.org/Graphics/SVG/1.1/DTD/svg11.dtd">
<svg width="100%" height="100%" viewBox="0 0 2233 414" version="1.1" xmlns="http://www.w3.org/2000/svg" xmlns:xlink="http://www.w3.org/1999/xlink" xml:space="preserve" xmlns:serif="http://www.serif.com/" style="fill-rule:evenodd;clip-rule:evenodd;stroke-linecap:round;stroke-linejoin:round;stroke-miterlimit:1.5;">
    <g transform="matrix(1,0,0,1,-187.097,-151.641)">
        <g id="Logo" transform="matrix(1,0,0,1,-313.792,-719.353)">
            <g id="shadow-connect" serif:id="shadow connect">
                <path d="M1794.4,1252.87L1875.61,1252.89L1875.66,1165.38C1875.66,1165.38 1833.76,1165.4 1947.9,1165.4C2062.03,1165.4 2054.86,1076.32 2054.86,1076.32L2012.88,970.476L1974.37,931.96C1974.37,931.96 1949.52,905.222 1895.56,905.222C1841.6,905.222 1738.39,905.213 1738.39,905.213L1738.31,932.436L1711.07,905.196L1629.82,905.318L1629.81,934.111L1600.9,905.198L1367.55,905.205L1367.56,998.892L1314.82,946.154C1314.82,946.154 1281.44,886.925 1201.2,897.189C1120.95,907.452 1094.34,946.56 1094.34,946.56L1053.19,905.529L819.587,905.418L819.692,977.834L777.831,935.972C777.831,935.972 756.567,904.642 688.965,905.205C621.362,905.768 525.889,905.203 525.889,905.203L526.004,1197.05L582.468,1253.51L663.754,1253.39L663.886,1161.58L708.286,1156.9L711.528,1196.88L767.287,1252.64L849.071,1253.74L792.555,1196.87L819.698,1196.89L876.418,1253.61L1111.51,1253.75L1112.23,1201L1107.09,1162.88C1107.09,1162.88 1157.83,1213.01 1164.29,1220.09C1170.76,1227.17 1210.24,1266.06 1276.4,1257.92C1350.1,1248.86 1377.4,1213.26 1377.4,1213.26L1367.56,1196.86L1423.36,1252.61L1658.54,1252.47L1629.81,1196.85L1686.38,1253.42L1766.89,1252.94L1738.4,1196.87L1794.4,1252.87Z"/>
                <path d="M794.604,916.828L794.587,905.455C794.578,898.816 797.209,892.446 801.901,887.749C806.593,883.053 812.96,880.415 819.599,880.419L1053.21,880.529C1059.82,880.532 1066.16,883.156 1070.85,887.826C1070.85,887.826 1094.51,911.417 1094.51,911.417C1113.12,896.906 1145.69,879.084 1198.02,872.391C1283.69,861.434 1325.27,916.243 1334.56,930.536L1342.56,938.535L1342.55,905.206C1342.55,891.399 1353.75,880.206 1367.55,880.205L1600.9,880.198C1606.15,880.198 1611.23,881.849 1615.44,884.863C1619.5,882.006 1624.44,880.326 1629.78,880.318L1711.03,880.196C1715.93,880.188 1720.69,881.623 1724.74,884.266C1728.66,881.703 1733.36,880.213 1738.39,880.213C1738.39,880.213 1841.6,880.222 1895.56,880.222C1959.19,880.222 1989.66,911.653 1992.46,914.694L2030.56,952.798C2032.97,955.209 2034.86,958.089 2036.12,961.259L2078.1,1067.11C2079.01,1069.41 2079.58,1071.85 2079.78,1074.32C2079.78,1074.32 2083.42,1116.71 2053.62,1150.57C2035.21,1171.47 2003.69,1190.4 1947.9,1190.4C1927.57,1190.4 1912.2,1190.4 1900.65,1190.4L1900.61,1252.9C1900.61,1266.71 1889.41,1277.89 1875.61,1277.89L1794.39,1277.87C1789.49,1277.87 1784.74,1276.43 1780.7,1273.78C1776.71,1276.43 1771.98,1277.91 1767.04,1277.94L1686.53,1278.42C1681.2,1278.45 1676.03,1276.78 1671.76,1273.69C1667.86,1276.12 1663.3,1277.47 1658.56,1277.47L1423.37,1277.61C1416.74,1277.61 1410.38,1274.98 1405.69,1270.29L1380.24,1244.87C1362.83,1258.41 1330.92,1276.4 1279.45,1282.74C1200.48,1292.45 1153.55,1245.4 1145.83,1236.95C1144.49,1235.48 1141.21,1232.13 1136.87,1227.75L1136.51,1254.09C1136.33,1267.77 1125.18,1278.76 1111.5,1278.75L876.403,1278.61C871.556,1278.6 866.856,1277.19 862.847,1274.6C858.751,1277.31 853.861,1278.81 848.734,1278.74L766.95,1277.63C760.437,1277.55 754.216,1274.92 749.61,1270.32L693.85,1214.56C691.743,1212.45 690.047,1210 688.82,1207.34L688.754,1253.43C688.734,1267.2 677.569,1278.37 663.791,1278.39L582.505,1278.51C575.862,1278.52 569.488,1275.88 564.791,1271.19L508.326,1214.72C503.64,1210.04 501.007,1203.68 501.004,1197.05L500.889,905.213C500.887,898.555 503.54,892.171 508.26,887.477C512.981,882.782 519.379,880.164 526.037,880.203C526.037,880.203 621.301,880.767 688.757,880.206C754.884,879.656 784.764,905.576 794.604,916.828ZM1875.66,1165.39C1885.37,1165.39 1906.25,1165.4 1947.9,1165.4C2062.03,1165.4 2054.86,1076.32 2054.86,1076.32L2012.88,970.476L1974.37,931.96C1974.37,931.96 1949.52,905.222 1895.56,905.222C1841.6,905.222 1738.39,905.213 1738.39,905.213L1738.31,932.436L1711.07,905.196L1629.82,905.318L1629.81,934.111L1600.9,905.198L1367.55,905.205L1367.56,998.892L1314.82,946.154C1314.82,946.154 1281.44,886.925 1201.2,897.189C1120.95,907.452 1094.34,946.56 1094.34,946.56L1053.19,905.529L819.587,905.418L819.692,977.834L777.831,935.972C777.831,935.972 756.567,904.642 688.965,905.205C621.362,905.768 525.889,905.203 525.889,905.203L526.004,1197.05L582.468,1253.51L663.754,1253.39L663.886,1161.58L708.286,1156.9L711.528,1196.88L767.287,1252.64L849.071,1253.74L792.555,1196.87L819.698,1196.89L876.418,1253.61L1111.51,1253.75L1112.23,1201L1107.09,1162.88C1107.09,1162.88 1157.83,1213.01 1164.29,1220.09C1170.76,1227.17 1210.24,1266.06 1276.4,1257.92C1350.1,1248.86 1377.4,1213.26 1377.4,1213.26L1367.56,1196.86L1423.36,1252.61L1658.54,1252.47L1629.81,1196.85L1686.38,1253.42L1766.89,1252.94L1738.4,1196.87L1794.4,1252.87L1875.61,1252.89L1875.66,1165.39C1858.76,1165.39 1875.66,1165.38 1875.66,1165.38L1875.66,1165.39Z" style="fill:white;"/>
                <path d="M1794.4,1252.87L1875.61,1252.89L1875.66,1165.38C1875.66,1165.38 1833.76,1165.4 1947.9,1165.4C2062.03,1165.4 2054.86,1076.32 2054.86,1076.32L2012.88,970.476L1974.37,931.96C1974.37,931.96 1949.52,905.222 1895.56,905.222C1841.6,905.222 1738.39,905.213 1738.39,905.213L1738.31,932.436L1711.07,905.196L1629.82,905.318L1629.81,934.111L1600.9,905.198L1367.55,905.205L1367.56,998.892L1314.82,946.154C1314.82,946.154 1281.44,886.925 1201.2,897.189C1120.95,907.452 1094.34,946.56 1094.34,946.56L1053.19,905.529L819.587,905.418L819.692,977.834L777.831,935.972C777.831,935.972 756.567,904.642 688.965,905.205C621.362,905.768 525.889,905.203 525.889,905.203L526.004,1197.05L582.468,1253.51L663.754,1253.39L663.886,1161.58L708.286,1156.9L711.528,1196.88L767.287,1252.64L849.071,1253.74L792.555,1196.87L819.698,1196.89L876.418,1253.61L1111.51,1253.75L1112.23,1201L1107.09,1162.88C1107.09,1162.88 1157.83,1213.01 1164.29,1220.09C1170.76,1227.17 1210.24,1266.06 1276.4,1257.92C1350.1,1248.86 1377.4,1213.26 1377.4,1213.26L1367.56,1196.86L1423.36,1252.61L1658.54,1252.47L1629.81,1196.85L1686.38,1253.42L1766.89,1252.94L1738.4,1196.87L1794.4,1252.87Z" style="fill:none;stroke:black;stroke-width:33.33px;"/>
                <path d="M2357.93,1253.26L2617.76,1253.44L2618.64,1077.46L2708.4,961.757L2651.83,905.193L2577.68,905.292L2539.97,965.851L2478.81,904.693L2414.97,905.225L2382.72,905.199L2301.47,905.202L2301.5,933.534L2273.15,905.19L2012.66,905.239L2012.74,976.041L2102.47,1065.78L2102.47,1196.61L2159.07,1253.21L2239.76,1252.88L2240.02,1032.31L2301.46,1032.61L2301.47,1196.87L2357.93,1253.26Z"/>
                <path d="M2287.32,884.51C2291.46,881.681 2296.38,880.136 2301.47,880.136L2382.72,880.133L2382.74,880.133L2414.88,880.159L2478.6,879.628C2485.32,879.572 2491.78,882.217 2496.54,886.969L2535.38,925.809L2556.41,892.042C2560.98,884.703 2569.01,880.238 2577.65,880.226L2651.8,880.127C2658.46,880.118 2664.85,882.759 2669.56,887.468L2726.12,944.033C2735.05,952.963 2735.95,967.143 2728.2,977.122L2643.66,1086.1L2642.83,1253.56C2642.76,1267.37 2631.55,1278.51 2617.75,1278.5L2357.91,1278.32C2351.27,1278.32 2344.91,1275.68 2340.21,1270.99L2283.76,1214.6C2279.05,1209.9 2276.41,1203.52 2276.41,1196.87L2276.4,1057.55L2265.06,1057.5L2264.83,1252.91C2264.81,1266.71 2253.66,1277.89 2239.86,1277.95L2159.17,1278.27C2152.49,1278.3 2146.07,1275.66 2141.35,1270.93L2084.74,1214.33C2080.04,1209.63 2077.4,1203.25 2077.4,1196.61L2077.4,1076.16L1995.01,993.765C1990.32,989.071 1987.68,982.706 1987.67,976.067L1987.6,905.265C1987.59,898.613 1990.23,892.232 1994.93,887.525C1999.63,882.819 2006.01,880.174 2012.66,880.173L2273.15,880.123C2278.24,880.122 2283.18,881.672 2287.32,884.51ZM2357.93,1253.26L2617.76,1253.44L2618.64,1077.46L2708.4,961.757L2651.83,905.193L2577.68,905.292L2539.97,965.851L2478.81,904.693L2414.97,905.225L2382.72,905.199L2301.47,905.202L2301.5,933.534L2273.15,905.19L2012.66,905.239L2012.74,976.041L2102.47,1065.78L2102.47,1196.61L2159.07,1253.21L2239.76,1252.88L2240.02,1032.31L2301.46,1032.61L2301.47,1196.87L2357.93,1253.26Z" style="fill:white;"/>
                <path d="M2357.93,1253.26L2617.76,1253.44L2618.64,1077.46L2708.4,961.757L2651.83,905.193L2577.68,905.292L2539.97,965.851L2478.81,904.693L2414.97,905.225L2382.72,905.199L2301.47,905.202L2301.5,933.534L2273.15,905.19L2012.66,905.239L2012.74,976.041L2102.47,1065.78L2102.47,1196.61L2159.07,1253.21L2239.76,1252.88L2240.02,1032.31L2301.46,1032.61L2301.47,1196.87L2357.93,1253.26Z" style="fill:none;stroke:black;stroke-width:33.33px;"/>
            </g>
            <g id="text-shadow" serif:id="text shadow" transform="matrix(0.439052,0,0,0.439052,391.428,606.108)">
                <path d="M433.8,1473.08L618.857,1473.08L618.857,1264.3L780.19,1264.3C827.641,1264.3 846.621,1283.28 846.621,1330.73L846.621,1368.69C846.621,1387.67 846.621,1425.63 856.111,1473.08L1041.17,1473.08C1031.68,1425.63 1031.68,1378.18 1031.68,1349.71L1031.68,1302.26C1031.68,1221.59 988.973,1188.38 922.542,1178.89L922.542,1169.4C998.464,1159.9 1041.17,1112.45 1041.17,1031.79L1041.17,984.338C1041.17,841.985 917.797,808.77 799.17,808.77L433.8,808.77L433.8,1473.08ZM618.857,1102.96L618.857,970.102L789.68,970.102C827.641,970.102 846.621,989.083 846.621,1022.3L846.621,1049.82C846.621,1083.98 827.641,1102.96 789.68,1102.96L618.857,1102.96Z" style="fill:none;stroke:black;stroke-width:75.92px;stroke-miterlimit:2;"/>
                <path d="M433.8,1473.08L618.857,1473.08L618.857,1264.3L780.19,1264.3C827.641,1264.3 846.621,1283.28 846.621,1330.73L846.621,1368.69C846.621,1387.67 846.621,1425.63 856.111,1473.08L1041.17,1473.08C1031.68,1425.63 1031.68,1378.18 1031.68,1349.71L1031.68,1302.26C1031.68,1221.59 988.973,1188.38 922.542,1178.89L922.542,1169.4C998.464,1159.9 1041.17,1112.45 1041.17,1031.79L1041.17,984.338C1041.17,841.985 917.797,808.77 799.17,808.77L433.8,808.77L433.8,1473.08ZM618.857,1102.96L618.857,970.102L789.68,970.102C827.641,970.102 846.621,989.083 846.621,1022.3L846.621,1049.82C846.621,1083.98 827.641,1102.96 789.68,1102.96L618.857,1102.96Z"/>
                <path d="M1102.86,1473.08L1639.05,1473.08L1639.05,1311.75L1287.91,1311.75L1287.91,1212.1L1615.32,1212.1L1615.32,1065L1287.91,1065L1287.91,970.102L1634.3,970.102L1634.3,808.77L1102.86,808.77L1102.86,1473.08Z" style="fill:none;stroke:black;stroke-width:75.92px;stroke-miterlimit:2;"/>
                <path d="M1102.86,1473.08L1639.05,1473.08L1639.05,1311.75L1287.91,1311.75L1287.91,1212.1L1615.32,1212.1L1615.32,1065L1287.91,1065L1287.91,970.102L1634.3,970.102L1634.3,808.77L1102.86,808.77L1102.86,1473.08Z"/>
                <g transform="matrix(0.965926,-0.258819,0.258819,0.965926,-227.803,551.517)">
                    <path d="M2107.86,1212.1C2103.12,1279.48 2070.85,1325.98 1990.18,1325.98C1895.28,1325.98 1857.32,1278.53 1857.32,1178.89L1857.32,1102.96C1857.32,1003.32 1895.28,955.867 1990.18,955.867C2070.85,955.867 2104.07,1004.27 2107.86,1060.26L2108.81,1074.49L2298.61,1074.49C2298.61,889.436 2170.5,794.535 1990.18,794.535C1824.11,794.535 1662.77,889.436 1662.77,1117.2L1662.77,1164.65C1662.77,1392.41 1824.11,1487.32 1990.18,1487.32C2170.5,1487.32 2298.61,1393.36 2298.61,1197.87L2108.81,1197.87L2107.86,1212.1Z" style="fill:none;stroke:black;stroke-width:75.92px;stroke-miterlimit:2;"/>
                    <path d="M2107.86,1212.1C2103.12,1279.48 2070.85,1325.98 1990.18,1325.98C1895.28,1325.98 1857.32,1278.53 1857.32,1178.89L1857.32,1102.96C1857.32,1003.32 1895.28,955.867 1990.18,955.867C2070.85,955.867 2104.07,1004.27 2107.86,1060.26L2108.81,1074.49L2298.61,1074.49C2298.61,889.436 2170.5,794.535 1990.18,794.535C1824.11,794.535 1662.77,889.436 1662.77,1117.2L1662.77,1164.65C1662.77,1392.41 1824.11,1487.32 1990.18,1487.32C2170.5,1487.32 2298.61,1393.36 2298.61,1197.87L2108.81,1197.87L2107.86,1212.1Z"/>
                </g>
                <path d="M2350.81,1473.08L2887,1473.08L2887,1311.75L2535.87,1311.75L2535.87,1212.1L2863.28,1212.1L2863.28,1065L2535.87,1065L2535.87,970.102L2882.26,970.102L2882.26,808.77L2350.81,808.77L2350.81,1473.08Z" style="fill:none;stroke:black;stroke-width:75.92px;stroke-miterlimit:2;"/>
                <path d="M2350.81,1473.08L2887,1473.08L2887,1311.75L2535.87,1311.75L2535.87,1212.1L2863.28,1212.1L2863.28,1065L2535.87,1065L2535.87,970.102L2882.26,970.102L2882.26,808.77L2350.81,808.77L2350.81,1473.08Z"/>
                <g transform="matrix(1,0,0,1,13.6658,0)">
                    <rect x="2934.45" y="808.77" width="185.058" height="664.311" style="fill:none;stroke:black;stroke-width:75.92px;stroke-miterlimit:2;"/>
                    <rect x="2934.45" y="808.77" width="185.058" height="664.311"/>
                </g>
                <path d="M3195.43,1473.08L3380.49,1473.08L3380.49,1273.79L3546.57,1273.79C3693.67,1273.79 3788.57,1202.61 3788.57,1069.75L3788.57,1012.81C3788.57,879.946 3693.67,808.77 3546.57,808.77L3195.43,808.77L3195.43,1473.08ZM3380.49,1112.45L3380.49,970.102L3537.08,970.102C3575.04,970.102 3594.02,989.083 3594.02,1027.04L3594.02,1055.51C3594.02,1093.47 3575.04,1112.45 3537.08,1112.45L3380.49,1112.45Z" style="fill:none;stroke:black;stroke-width:75.92px;stroke-miterlimit:2;"/>
                <path d="M3195.43,1473.08L3380.49,1473.08L3380.49,1273.79L3546.57,1273.79C3693.67,1273.79 3788.57,1202.61 3788.57,1069.75L3788.57,1012.81C3788.57,879.946 3693.67,808.77 3546.57,808.77L3195.43,808.77L3195.43,1473.08ZM3380.49,1112.45L3380.49,970.102L3537.08,970.102C3575.04,970.102 3594.02,989.083 3594.02,1027.04L3594.02,1055.51C3594.02,1093.47 3575.04,1112.45 3537.08,1112.45L3380.49,1112.45Z"/>
                <g transform="matrix(1,0,0,1,81.9949,0)">
                    <path d="M4395.94,1473.08L4987.55,1473.08L4987.55,1311.75L4581,1311.75L4581,808.77L4395.94,808.77L4395.94,1473.08Z" style="fill:none;stroke:black;stroke-width:75.92px;stroke-miterlimit:2;"/>
                    <path d="M4395.94,1473.08L4987.55,1473.08L4987.55,1311.75L4581,1311.75L4581,808.77L4395.94,808.77L4395.94,1473.08Z"/>
                </g>
            </g>
            <g id="text" transform="matrix(0.439052,0,0,0.439052,335.428,550.108)">
                <path d="M433.8,1473.08L618.857,1473.08L618.857,1264.3L780.19,1264.3C827.641,1264.3 846.621,1283.28 846.621,1330.73L846.621,1368.69C846.621,1387.67 846.621,1425.63 856.111,1473.08L1041.17,1473.08C1031.68,1425.63 1031.68,1378.18 1031.68,1349.71L1031.68,1302.26C1031.68,1221.59 988.973,1188.38 922.542,1178.89L922.542,1169.4C998.464,1159.9 1041.17,1112.45 1041.17,1031.79L1041.17,984.338C1041.17,841.985 917.797,808.77 799.17,808.77L433.8,808.77L433.8,1473.08ZM618.857,1102.96L618.857,970.102L789.68,970.102C827.641,970.102 846.621,989.083 846.621,1022.3L846.621,1049.82C846.621,1083.98 827.641,1102.96 789.68,1102.96L618.857,1102.96Z" style="fill:white;"/>
                <path d="M1014.25,1174.49C1019.55,1178.51 1024.51,1182.89 1029.1,1187.62C1053.84,1213.14 1069.4,1249.68 1069.4,1302.26L1069.4,1349.71C1069.4,1376.47 1069.23,1421.08 1078.15,1465.68C1080.37,1476.76 1077.5,1488.25 1070.34,1496.99C1063.17,1505.73 1052.47,1510.8 1041.17,1510.8L856.111,1510.8C838.132,1510.8 822.652,1498.11 819.126,1480.48C808.963,1429.66 808.904,1389.02 808.904,1368.69L808.904,1330.73C808.904,1319.72 809.484,1311.34 804.529,1306.39C799.575,1301.43 791.2,1302.01 780.19,1302.01L656.575,1302.01L656.575,1473.08C656.575,1493.91 639.688,1510.8 618.857,1510.8L433.8,1510.8C412.969,1510.8 396.082,1493.91 396.082,1473.08L396.082,808.77C396.082,787.939 412.969,771.053 433.8,771.053L799.17,771.053C938.738,771.053 1078.89,816.856 1078.89,984.338L1078.89,1031.79C1078.89,1082.75 1064.24,1122.84 1038.76,1152.07C1031.51,1160.38 1023.34,1167.88 1014.25,1174.49ZM433.8,1473.08L618.857,1473.08L618.857,1264.3L780.19,1264.3C827.641,1264.3 846.621,1283.28 846.621,1330.73L846.621,1368.69C846.621,1387.67 846.621,1425.63 856.111,1473.08L1041.17,1473.08C1031.68,1425.63 1031.68,1378.18 1031.68,1349.71L1031.68,1302.26C1031.68,1221.59 988.973,1188.38 922.542,1178.89L922.542,1169.4C998.464,1159.9 1041.17,1112.45 1041.17,1031.79L1041.17,984.338C1041.17,841.985 917.797,808.77 799.17,808.77L433.8,808.77L433.8,1473.08ZM618.857,1102.96L618.857,970.102L789.68,970.102C827.641,970.102 846.621,989.083 846.621,1022.3L846.621,1049.82C846.621,1083.98 827.641,1102.96 789.68,1102.96L618.857,1102.96ZM656.575,1065.25L789.68,1065.25C796.9,1065.25 802.798,1065.29 806.408,1061.86C809.194,1059.21 808.904,1054.84 808.904,1049.82L808.904,1022.3C808.904,1017.74 809.194,1013.7 806.589,1011.26C802.937,1007.84 796.986,1007.82 789.68,1007.82L656.575,1007.82L656.575,1065.25Z"/>
                <path d="M1102.86,1473.08L1639.05,1473.08L1639.05,1311.75L1287.91,1311.75L1287.91,1212.1L1615.32,1212.1L1615.32,1065L1287.91,1065L1287.91,970.102L1634.3,970.102L1634.3,808.77L1102.86,808.77L1102.86,1473.08Z" style="fill:white;"/>
                <path d="M1065.14,1473.08L1065.14,808.77C1065.14,787.939 1082.03,771.053 1102.86,771.053L1634.3,771.053C1655.13,771.053 1672.02,787.939 1672.02,808.77L1672.02,970.102C1672.02,990.933 1655.13,1007.82 1634.3,1007.82L1325.63,1007.82C1325.63,1007.82 1325.63,1027.29 1325.63,1027.29L1615.32,1027.29C1636.15,1027.29 1653.04,1044.17 1653.04,1065L1653.04,1212.1C1653.04,1232.93 1636.15,1249.82 1615.32,1249.82L1325.63,1249.82C1325.63,1249.82 1325.63,1274.03 1325.63,1274.03L1639.05,1274.03C1659.88,1274.03 1676.77,1290.92 1676.77,1311.75L1676.77,1473.08C1676.77,1493.91 1659.88,1510.8 1639.05,1510.8L1102.86,1510.8C1082.03,1510.8 1065.14,1493.91 1065.14,1473.08ZM1102.86,1473.08L1639.05,1473.08L1639.05,1311.75L1287.91,1311.75L1287.91,1212.1L1615.32,1212.1L1615.32,1065L1287.91,1065L1287.91,970.102L1634.3,970.102L1634.3,808.77L1102.86,808.77L1102.86,1473.08Z"/>
                <g transform="matrix(0.965926,-0.258819,0.258819,0.965926,-227.803,551.517)">
                    <path d="M2107.86,1212.1C2103.12,1279.48 2070.85,1325.98 1990.18,1325.98C1895.28,1325.98 1857.32,1278.53 1857.32,1178.89L1857.32,1102.96C1857.32,1003.32 1895.28,955.867 1990.18,955.867C2070.85,955.867 2104.07,1004.27 2107.86,1060.26L2108.81,1074.49L2298.61,1074.49C2298.61,889.436 2170.5,794.535 1990.18,794.535C1824.11,794.535 1662.77,889.436 1662.77,1117.2L1662.77,1164.65C1662.77,1392.41 1824.11,1487.32 1990.18,1487.32C2170.5,1487.32 2298.61,1393.36 2298.61,1197.87L2108.81,1197.87L2107.86,1212.1Z" style="fill:white;"/>
                    <path d="M2070.23,1209.51L2071.18,1195.36C2072.5,1175.54 2088.95,1160.15 2108.81,1160.15L2298.61,1160.15C2319.45,1160.15 2336.33,1177.04 2336.33,1197.87C2336.33,1308.56 2298.7,1389.97 2236.91,1444.24C2176.12,1497.63 2090.62,1525.03 1990.18,1525.03C1879.14,1525.03 1770.51,1485.75 1700.96,1400.46C1654.63,1343.64 1625.06,1266.11 1625.06,1164.65L1625.06,1117.2C1625.06,1015.74 1654.63,938.211 1700.96,881.391C1770.51,796.106 1879.14,756.817 1990.18,756.817C2090.48,756.817 2175.88,784.376 2236.59,836.502C2298.74,889.868 2336.33,969.114 2336.33,1074.49C2336.33,1095.33 2319.45,1112.21 2298.61,1112.21L2108.81,1112.21C2088.95,1112.21 2072.5,1096.82 2071.18,1077L2070.23,1062.8C2068.96,1044.1 2063.61,1026.33 2051.01,1013.57C2038.04,1000.43 2017.94,993.584 1990.18,993.584C1956.3,993.584 1931.75,999.571 1916.51,1016.93C1900.06,1035.66 1895.04,1064.59 1895.04,1102.96L1895.04,1178.89C1895.04,1217.26 1900.06,1246.19 1916.51,1264.92C1931.75,1282.28 1956.3,1288.27 1990.18,1288.27C2017.51,1288.27 2037.24,1282.13 2049.94,1268.55C2063.3,1254.27 2068.54,1233.51 2070.23,1209.51ZM2107.86,1212.1C2103.12,1279.48 2070.85,1325.98 1990.18,1325.98C1895.28,1325.98 1857.32,1278.53 1857.32,1178.89L1857.32,1102.96C1857.32,1003.32 1895.28,955.867 1990.18,955.867C2070.85,955.867 2104.07,1004.27 2107.86,1060.26L2108.81,1074.49L2298.61,1074.49C2298.61,889.436 2170.5,794.535 1990.18,794.535C1824.11,794.535 1662.77,889.436 1662.77,1117.2L1662.77,1164.65C1662.77,1392.41 1824.11,1487.32 1990.18,1487.32C2170.5,1487.32 2298.61,1393.36 2298.61,1197.87L2108.81,1197.87L2107.86,1212.1Z"/>
                </g>
                <path d="M2350.81,1473.08L2887,1473.08L2887,1311.75L2535.87,1311.75L2535.87,1212.1L2863.28,1212.1L2863.28,1065L2535.87,1065L2535.87,970.102L2882.26,970.102L2882.26,808.77L2350.81,808.77L2350.81,1473.08Z" style="fill:white;"/>
                <path d="M2313.09,1473.08L2313.09,808.77C2313.09,787.939 2329.98,771.053 2350.81,771.053L2882.26,771.053C2903.09,771.053 2919.98,787.939 2919.98,808.77L2919.98,970.102C2919.98,990.933 2903.09,1007.82 2882.26,1007.82L2573.59,1007.82C2573.59,1007.82 2573.59,1027.29 2573.59,1027.29L2863.28,1027.29C2884.11,1027.29 2901,1044.17 2901,1065L2901,1212.1C2901,1232.93 2884.11,1249.82 2863.28,1249.82L2573.59,1249.82C2573.59,1249.82 2573.59,1274.03 2573.59,1274.03L2887,1274.03C2907.84,1274.03 2924.72,1290.92 2924.72,1311.75L2924.72,1473.08C2924.72,1493.91 2907.84,1510.8 2887,1510.8L2350.81,1510.8C2329.98,1510.8 2313.09,1493.91 2313.09,1473.08ZM2350.81,1473.08L2887,1473.08L2887,1311.75L2535.87,1311.75L2535.87,1212.1L2863.28,1212.1L2863.28,1065L2535.87,1065L2535.87,970.102L2882.26,970.102L2882.26,808.77L2350.81,808.77L2350.81,1473.08Z"/>
                <g transform="matrix(1,0,0,1,13.6658,0)">
                    <rect x="2934.45" y="808.77" width="185.058" height="664.311" style="fill:white;"/>
                    <path d="M2896.74,1473.08L2896.74,808.77C2896.74,787.939 2913.62,771.053 2934.45,771.053L3119.51,771.053C3140.34,771.053 3157.23,787.939 3157.23,808.77L3157.23,1473.08C3157.23,1493.91 3140.34,1510.8 3119.51,1510.8L2934.45,1510.8C2913.62,1510.8 2896.74,1493.91 2896.74,1473.08ZM2934.45,1473.08L3119.51,1473.08L3119.51,808.77L2934.45,808.77L2934.45,1473.08Z"/>
                </g>
                <g transform="matrix(1,0,0,1,36.4422,0)">
                    <path d="M3987.86,1473.08L4172.92,1473.08L4172.92,970.102L4376.96,970.102L4376.96,808.77L3783.82,808.77L3783.82,970.102L3987.86,970.102L3987.86,1473.08Z" style="fill:white;"/>
                    <path d="M3950.14,1473.08L3950.14,1007.82L3783.82,1007.82C3762.99,1007.82 3746.11,990.933 3746.11,970.102L3746.11,808.77C3746.11,787.939 3762.99,771.053 3783.82,771.053L4376.96,771.053C4397.79,771.053 4414.68,787.939 4414.68,808.77L4414.68,970.102C4414.68,990.933 4397.79,1007.82 4376.96,1007.82C4376.96,1007.82 4210.64,1007.82 4210.64,1007.82L4210.64,1473.08C4210.64,1493.91 4193.75,1510.8 4172.92,1510.8L3987.86,1510.8C3967.03,1510.8 3950.14,1493.91 3950.14,1473.08ZM3987.86,1473.08L4172.92,1473.08L4172.92,970.102L4376.96,970.102L4376.96,808.77L3783.82,808.77L3783.82,970.102L3987.86,970.102L3987.86,1473.08Z"/>
                </g>
                <path d="M3195.43,1473.08L3380.49,1473.08L3380.49,1273.79L3546.57,1273.79C3693.67,1273.79 3788.57,1202.61 3788.57,1069.75L3788.57,1012.81C3788.57,879.946 3693.67,808.77 3546.57,808.77L3195.43,808.77L3195.43,1473.08ZM3380.49,1112.45L3380.49,970.102L3537.08,970.102C3575.04,970.102 3594.02,989.083 3594.02,1027.04L3594.02,1055.51C3594.02,1093.47 3575.04,1112.45 3537.08,1112.45L3380.49,1112.45Z" style="fill:white;"/>
                <path d="M3157.72,1473.08L3157.72,808.77C3157.72,787.939 3174.6,771.053 3195.43,771.053L3546.57,771.053C3647.99,771.053 3726.96,802.753 3774.59,859.287C3807.48,898.316 3826.29,949.566 3826.29,1012.81L3826.29,1069.75C3826.29,1132.99 3807.48,1184.24 3774.59,1223.27C3726.96,1279.8 3647.99,1311.51 3546.57,1311.51C3546.57,1311.51 3418.21,1311.51 3418.21,1311.51L3418.21,1473.08C3418.21,1493.91 3401.32,1510.8 3380.49,1510.8L3195.43,1510.8C3174.6,1510.8 3157.72,1493.91 3157.72,1473.08ZM3195.43,1473.08L3380.49,1473.08L3380.49,1273.79L3546.57,1273.79C3693.67,1273.79 3788.57,1202.61 3788.57,1069.75L3788.57,1012.81C3788.57,879.946 3693.67,808.77 3546.57,808.77L3195.43,808.77L3195.43,1473.08ZM3380.49,1112.45L3380.49,970.102L3537.08,970.102C3575.04,970.102 3594.02,989.083 3594.02,1027.04L3594.02,1055.51C3594.02,1093.47 3575.04,1112.45 3537.08,1112.45L3380.49,1112.45ZM3418.21,1074.74L3537.08,1074.74C3543.97,1074.74 3549.67,1075 3553.12,1071.55C3556.56,1068.1 3556.3,1062.41 3556.3,1055.51L3556.3,1027.04C3556.3,1020.15 3556.56,1014.46 3553.12,1011.01C3549.67,1007.56 3543.97,1007.82 3537.08,1007.82L3418.21,1007.82L3418.21,1074.74Z"/>
                <g transform="matrix(0.848929,0,0,0.708545,581.347,235.705)">
                    <path d="M5206.4,1050.77L5196.91,1050.77L5064.99,808.77L4851.47,808.77L5102.95,1235.83L5102.95,1473.08L5288.01,1473.08L5288.01,1235.83L5530.01,808.77L5330.72,808.77L5206.4,1050.77Z" style="fill:white;"/>
                    <path d="M5200.68,960.342L5292.88,780.867C5300.97,765.126 5315.29,755.538 5330.72,755.538L5530.01,755.538C5546.46,755.538 5561.57,766.431 5569.27,783.85C5576.97,801.269 5576.01,822.362 5566.77,838.671L5332.44,1252.19L5332.44,1473.08C5332.44,1502.48 5312.55,1526.31 5288.01,1526.31L5102.95,1526.31C5078.42,1526.31 5058.53,1502.48 5058.53,1473.08L5058.53,1252.72L4815.16,839.459C4805.6,823.211 4804.38,801.929 4812.02,784.275C4819.66,766.62 4834.87,755.538 4851.47,755.538L5064.99,755.538C5080,755.538 5093.99,764.611 5102.19,779.662L5200.68,960.342ZM5206.4,1050.77L5196.91,1050.77L5064.99,808.77L4851.47,808.77L5102.95,1235.83L5102.95,1473.08L5288.01,1473.08L5288.01,1235.83L5530.01,808.77L5330.72,808.77L5206.4,1050.77Z"/>
                </g>
                <g transform="matrix(1,0,0,1,81.9949,0)">
                    <path d="M4395.94,1473.08L4987.55,1473.08L4987.55,1311.75L4581,1311.75L4581,808.77L4395.94,808.77L4395.94,1473.08Z" style="fill:white;"/>
                    <path d="M4358.22,1473.08L4358.22,808.77C4358.22,787.939 4375.11,771.053 4395.94,771.053L4581,771.053C4601.83,771.053 4618.71,787.939 4618.71,808.77C4618.71,808.77 4618.71,1274.03 4618.71,1274.03L4987.55,1274.03C5008.39,1274.03 5025.27,1290.92 5025.27,1311.75L5025.27,1473.08C5025.27,1493.91 5008.39,1510.8 4987.55,1510.8L4395.94,1510.8C4375.11,1510.8 4358.22,1493.91 4358.22,1473.08ZM4395.94,1473.08L4987.55,1473.08L4987.55,1311.75L4581,1311.75L4581,808.77L4395.94,808.77L4395.94,1473.08Z"/>
                </g>
            </g>
            <g transform="matrix(0.0234267,0,0,0.0234267,2497.41,1173.39)">
                <path d="M3005.22,741.412L2920.99,741.412L2920.99,1002.24L2886.82,1002.24L2886.82,741.412L2802.79,741.412L2802.79,710.487L3005.22,710.487L3005.22,741.412Z" style="fill:white;fill-rule:nonzero;"/>
                <path d="M3331.78,1002.24L3297.8,1002.24L3297.8,806.516C3297.8,791.053 3298.75,772.133 3300.65,749.753L3299.84,749.753C3296.58,762.909 3293.66,772.336 3291.09,778.033L3191.4,1002.24L3174.71,1002.24L3075.23,779.66C3072.38,773.15 3069.46,763.181 3066.48,749.753L3065.66,749.753C3066.75,761.418 3067.29,780.474 3067.29,806.923L3067.29,1002.24L3034.33,1002.24L3034.33,710.487L3079.5,710.487L3169.02,913.938C3175.93,929.535 3180.41,941.2 3182.45,948.931L3183.67,948.931C3189.5,932.926 3194.18,920.991 3197.7,913.124L3289.05,710.487L3331.78,710.487L3331.78,1002.24Z" style="fill:white;fill-rule:nonzero;"/>
                <rect x="3386.73" y="710.487" width="29.5" height="90.942" style="fill:white;fill-rule:nonzero;"/>
                <path d="M3639.43,1002.24L3606.06,1002.24L3606.06,883.42C3606.06,839.203 3589.92,817.095 3557.64,817.095C3540.96,817.095 3527.12,823.402 3516.14,836.016C3505.29,848.494 3499.86,864.296 3499.86,883.42L3499.86,1002.24L3466.49,1002.24L3466.49,793.902L3499.86,793.902L3499.86,828.488L3500.68,828.488C3516.41,802.175 3539.2,789.019 3569.03,789.019C3591.82,789.019 3609.25,796.411 3621.32,811.195C3633.39,825.844 3639.43,847.07 3639.43,874.875L3639.43,1002.24Z" style="fill:white;fill-rule:nonzero;"/>
                <path d="M3782.27,1000.2C3774.4,1004.54 3764.02,1006.71 3751.14,1006.71C3714.65,1006.71 3696.41,986.366 3696.41,945.676L3696.41,822.385L3660.6,822.385L3660.6,793.902L3696.41,793.902L3696.41,743.039L3729.78,732.256L3729.78,793.902L3782.27,793.902L3782.27,822.385L3729.78,822.385L3729.78,939.776C3729.78,953.746 3732.15,963.715 3736.9,969.683C3741.64,975.651 3749.51,978.635 3760.5,978.635C3768.91,978.635 3776.16,976.329 3782.27,971.718L3782.27,1000.2Z" style="fill:white;fill-rule:nonzero;"/>
            </g>
        </g>
    </g>
</svg>
