<?xml version="1.0" encoding="UTF-8" standalone="no"?><!DOCTYPE svg PUBLIC "-//W3C//DTD SVG 1.1//EN" "http://www.w3.org/Graphics/SVG/1.1/DTD/svg11.dtd"><svg width="100%" height="100%" viewBox="0 0 2223 403" version="1.1" xmlns="http://www.w3.org/2000/svg" xmlns:xlink="http://www.w3.org/1999/xlink" xml:space="preserve" xmlns:serif="http://www.serif.com/" style="fill-rule:evenodd;clip-rule:evenodd;stroke-linecap:round;stroke-linejoin:round;stroke-miterlimit:1.5;"><g><g id="Logo"><g id="shadow-connect" serif:id="shadow connect"><path d="M1852.13,376.902l259.838,0.183l0.874,-175.98l89.761,-115.701l-56.565,-56.564l-111.865,60.658l-61.157,-61.158l-63.841,0.532l-32.25,-0.026l-81.223,28.335l-28.345,-28.344l-260.419,70.851l89.734,89.734l0,130.831l56.602,56.602l80.691,-0.324l0.262,-220.578l62.528,0.301l8.194,0.231l-9.229,164.007l56.41,56.41Z" style="stroke:#000;stroke-width:33.33px;"/><path d="M1289.21,377.116l217.875,-282.993l-38.515,-38.516l-236.059,0.476l-27.24,-27.24l-80.986,150.016l-37.549,-37.549l-24.724,-8.37l65.107,-31.967l-3.102,-43.215l-28.912,-28.913l-233.344,93.694l-52.738,-52.738l-253.483,88.241l-16.698,-16.699l49.706,-71.136l-41.149,-41.031l-233.502,72.305l-41.862,-41.862l-251.826,261.073l56.464,56.464l81.286,-0.119l0.131,-91.814l44.401,-4.671l3.242,39.973l55.759,55.759l81.784,1.103l-56.517,-56.874l27.144,0.021l56.719,56.719l235.096,0.141l0.713,-52.748l-5.138,-38.115l57.203,57.204l203.268,-23.228l55.797,55.747l179.712,-126.504l-0.294,80.357l27.036,-9.614l56.574,56.574l52.016,-56.555l56.605,56.604Z" style="stroke:#000;stroke-width:33.33px;"/></g><g id="text-shadow" serif:id="text shadow"><path d="M76.096,376.513l81.25,-0l-0,-91.667l70.833,0c20.833,0 29.167,8.334 29.167,29.167l-0,16.667c-0,8.333 -0,25 4.166,45.833l81.25,-0c-4.166,-20.833 -4.166,-41.667 -4.166,-54.167l-0,-20.833c-0,-35.417 -18.75,-50 -47.917,-54.167l-0,-4.166c33.333,-4.167 52.083,-25 52.083,-60.417l0,-20.833c0,-62.5 -54.166,-77.084 -106.25,-77.084l-160.416,0l-0,291.667Zm81.25,-162.5l-0,-58.333l75,-0c16.666,-0 25,8.333 25,22.916l-0,12.084c-0,15 -8.334,23.333 -25,23.333l-75,-0Z" style="fill:none;stroke:#000;stroke-width:33.33px;stroke-miterlimit:2;"/><path d="M76.096,376.513l81.25,-0l-0,-91.667l70.833,0c20.833,0 29.167,8.334 29.167,29.167l-0,16.667c-0,8.333 -0,25 4.166,45.833l81.25,-0c-4.166,-20.833 -4.166,-41.667 -4.166,-54.167l-0,-20.833c-0,-35.417 -18.75,-50 -47.917,-54.167l-0,-4.166c33.333,-4.167 52.083,-25 52.083,-60.417l0,-20.833c0,-62.5 -54.166,-77.084 -106.25,-77.084l-160.416,0l-0,291.667Zm81.25,-162.5l-0,-58.333l75,-0c16.666,-0 25,8.333 25,22.916l-0,12.084c-0,15 -8.334,23.333 -25,23.333l-75,-0Z"/><path d="M369.846,376.513l235.416,-0l0,-70.833l-154.166,-0l-0,-43.75l143.75,-0l-0,-64.584l-143.75,0l-0,-41.666l152.083,-0l-0,-70.834l-233.333,0l-0,291.667Z" style="fill:none;stroke:#000;stroke-width:33.33px;stroke-miterlimit:2;"/><path d="M369.846,376.513l235.416,-0l0,-70.833l-154.166,-0l-0,-43.75l143.75,-0l-0,-64.584l-143.75,0l-0,-41.666l152.083,-0l-0,-70.834l-233.333,0l-0,291.667Z"/><path d="M817.281,246.414c5.645,29.115 -2.755,52.502 -36.965,61.669c-40.247,10.784 -61.738,-5.026 -73.061,-47.285l-8.627,-32.198c-11.324,-42.259 -0.617,-66.696 39.63,-77.48c34.21,-9.167 53.796,7.585 61.769,30.899l2.02,5.929l80.494,-21.568c-21.03,-78.481 -86.147,-104.17 -162.616,-83.68c-70.432,18.872 -128.068,77.452 -102.186,174.045l5.392,20.123c25.882,96.593 105.086,118.507 175.518,99.634c76.469,-20.489 120.126,-74.892 97.911,-157.801l-80.494,21.568l1.215,6.145Z" style="fill:none;stroke:#000;stroke-width:33.33px;stroke-miterlimit:2;"/><path d="M817.281,246.414c5.645,29.115 -2.755,52.502 -36.965,61.669c-40.247,10.784 -61.738,-5.026 -73.061,-47.285l-8.627,-32.198c-11.324,-42.259 -0.617,-66.696 39.63,-77.48c34.21,-9.167 53.796,7.585 61.769,30.899l2.02,5.929l80.494,-21.568c-21.03,-78.481 -86.147,-104.17 -162.616,-83.68c-70.432,18.872 -128.068,77.452 -102.186,174.045l5.392,20.123c25.882,96.593 105.086,118.507 175.518,99.634c76.469,-20.489 120.126,-74.892 97.911,-157.801l-80.494,21.568l1.215,6.145Z"/><path d="M917.762,376.513l235.417,-0l-0,-70.833l-154.167,-0l0,-43.75l143.75,-0l0,-64.584l-143.75,0l0,-41.666l152.084,-0l-0,-70.834l-233.334,0l0,291.667Z" style="fill:none;stroke:#000;stroke-width:33.33px;stroke-miterlimit:2;"/><path d="M917.762,376.513l235.417,-0l-0,-70.833l-154.167,-0l0,-43.75l143.75,-0l0,-64.584l-143.75,0l0,-41.666l152.084,-0l-0,-70.834l-233.334,0l0,291.667Z"/><rect x="1180.01" y="84.846" width="81.25" height="291.667" style="fill:none;stroke:#000;stroke-width:33.33px;stroke-miterlimit:2;"/><rect x="1180.01" y="84.846" width="81.25" height="291.667"/><path d="M1288.6,376.513l81.25,-0l-0,-87.5l72.916,-0c64.584,-0 106.25,-31.25 106.25,-89.583l0,-25c0,-58.334 -41.666,-89.584 -106.25,-89.584l-154.166,0l-0,291.667Zm81.25,-158.333l-0,-62.5l68.75,-0c16.666,-0 25,8.333 25,25l-0,12.5c-0,16.666 -8.334,25 -25,25l-68.75,-0Z" style="fill:none;stroke:#000;stroke-width:33.33px;stroke-miterlimit:2;"/><path d="M1288.6,376.513l81.25,-0l-0,-87.5l72.916,-0c64.584,-0 106.25,-31.25 106.25,-89.583l0,-25c0,-58.334 -41.666,-89.584 -106.25,-89.584l-154.166,0l-0,291.667Zm81.25,-158.333l-0,-62.5l68.75,-0c16.666,-0 25,8.333 25,25l-0,12.5c-0,16.666 -8.334,25 -25,25l-68.75,-0Z"/></g><g id="text"><path d="M20.096,320.513l81.25,-0l-0,-91.667l70.833,0c20.833,0 29.167,8.334 29.167,29.167l-0,16.667c-0,8.333 -0,25 4.166,45.833l81.25,-0c-4.166,-20.833 -4.166,-41.667 -4.166,-54.167l-0,-20.833c-0,-35.417 -18.75,-50 -47.917,-54.167l-0,-4.166c33.333,-4.167 52.083,-25 52.083,-60.417l0,-20.833c0,-62.5 -54.166,-77.084 -106.25,-77.084l-160.416,0l-0,291.667Zm81.25,-162.5l-0,-58.333l75,-0c16.666,-0 25,8.333 25,22.916l-0,12.084c-0,15 -8.334,23.333 -25,23.333l-75,-0Z" style="fill:#fff;"/><path d="M274.945,189.417c2.327,1.765 4.501,3.686 6.518,5.766c10.862,11.202 17.692,27.248 17.692,50.33l0,20.833c0,11.75 -0.071,31.337 3.846,50.919c0.972,4.865 -0.287,9.91 -3.432,13.747c-3.146,3.836 -7.846,6.061 -12.807,6.061l-81.25,-0c-7.894,-0 -14.69,-5.572 -16.238,-13.312c-4.462,-22.311 -4.488,-40.157 -4.488,-49.081l-0,-16.667c-0,-4.834 0.254,-8.511 -1.921,-10.686c-2.175,-2.176 -5.852,-1.921 -10.686,-1.921l-54.274,0l0,75.107c0,9.146 -7.414,16.56 -16.559,16.56l-81.25,-0c-9.146,-0 -16.56,-7.414 -16.56,-16.56l-0,-291.667c-0,-9.145 7.414,-16.56 16.56,-16.56l160.416,0c61.278,0 122.81,20.111 122.81,93.644l0,20.833c0,22.375 -6.432,39.976 -17.619,52.809c-3.183,3.651 -6.771,6.942 -10.758,9.845Zm-254.849,131.096l81.25,-0l-0,-91.667l70.833,0c20.833,0 29.167,8.334 29.167,29.167l-0,16.667c-0,8.333 -0,25 4.166,45.833l81.25,-0c-4.166,-20.833 -4.166,-41.667 -4.166,-54.167l-0,-20.833c-0,-35.417 -18.75,-50 -47.917,-54.167l-0,-4.166c33.333,-4.167 52.083,-25 52.083,-60.417l0,-20.833c0,-62.5 -54.166,-77.084 -106.25,-77.084l-160.416,0l-0,291.667Zm81.25,-162.5l-0,-58.333l75,-0c16.666,-0 25,8.333 25,22.916l-0,12.084c-0,15 -8.334,23.333 -25,23.333l-75,-0Zm16.559,-16.56l58.441,0c3.17,0 5.759,0.018 7.344,-1.488c1.223,-1.162 1.096,-3.083 1.096,-5.285l-0,-12.084c-0,-2.001 0.127,-3.774 -1.016,-4.846c-1.604,-1.503 -4.217,-1.511 -7.424,-1.511l-58.441,0l0,25.214Z"/><path d="M313.846,320.513l235.416,-0l0,-70.833l-154.166,-0l-0,-43.75l143.75,-0l-0,-64.584l-143.75,0l-0,-41.666l152.083,-0l-0,-70.834l-233.333,0l-0,291.667Z" style="fill:#fff;"/><path d="M297.286,320.513l-0,-291.667c-0,-9.145 7.414,-16.56 16.56,-16.56l233.333,0c9.146,0 16.56,7.415 16.56,16.56l-0,70.834c-0,9.145 -7.414,16.559 -16.56,16.559l-135.524,0c0,0 0,8.547 0,8.547l127.191,0c9.145,0 16.559,7.415 16.559,16.56l0,64.584c0,9.145 -7.414,16.559 -16.559,16.559l-127.191,0c0,0 0,10.631 0,10.631l137.607,-0c9.146,-0 16.56,7.414 16.56,16.56l0,70.833c0,9.146 -7.414,16.56 -16.56,16.56l-235.416,-0c-9.146,-0 -16.56,-7.414 -16.56,-16.56Zm16.56,-0l235.416,-0l0,-70.833l-154.166,-0l-0,-43.75l143.75,-0l-0,-64.584l-143.75,0l-0,-41.666l152.083,-0l-0,-70.834l-233.333,0l-0,291.667Z"/><path d="M761.281,190.414c5.645,29.115 -2.755,52.502 -36.965,61.669c-40.247,10.784 -61.738,-5.026 -73.061,-47.285l-8.627,-32.198c-11.324,-42.259 -0.617,-66.696 39.63,-77.48c34.21,-9.167 53.796,7.585 61.769,30.899l2.02,5.929l80.494,-21.568c-21.03,-78.481 -86.147,-104.17 -162.616,-83.68c-70.432,18.872 -128.068,77.452 -102.186,174.045l5.392,20.123c25.882,96.593 105.086,118.507 175.518,99.634c76.469,-20.489 120.126,-74.892 97.911,-157.801l-80.494,21.568l1.215,6.145Z" style="fill:#fff;"/><path d="M745.029,193.592l-1.208,-6.11c-1.691,-8.553 3.538,-16.952 11.959,-19.208l80.494,-21.569c8.834,-2.367 17.914,2.876 20.281,11.71c12.579,46.946 5.872,85.745 -14.168,115.784c-19.714,29.55 -52.858,50.886 -95.452,62.299c-47.095,12.619 -97.626,8.301 -136.813,-19.965c-26.107,-18.831 -47.457,-48.349 -58.986,-91.379l-5.392,-20.123c-11.53,-43.03 -7.8,-79.268 5.394,-108.63c19.804,-44.072 61.406,-73.078 108.501,-85.697c42.534,-11.397 81.885,-9.414 113.553,5.794c32.42,15.57 57.369,44.905 69.344,89.596c2.367,8.834 -2.875,17.914 -11.709,20.282l-80.494,21.568c-8.421,2.256 -17.15,-2.403 -19.961,-10.655l-2.016,-5.917c-2.664,-7.787 -6.951,-14.715 -13.744,-18.694c-6.998,-4.098 -16.298,-4.716 -28.068,-1.563c-14.369,3.85 -24.1,9.179 -28.592,18.275c-4.847,9.812 -3.689,22.65 0.671,38.924l8.627,32.198c4.361,16.274 9.778,27.971 18.881,34.045c8.439,5.631 19.531,5.38 33.899,1.53c11.589,-3.105 19.261,-7.948 23.102,-15.151c4.04,-7.575 3.905,-16.975 1.897,-27.344Zm16.252,-3.178c5.645,29.115 -2.755,52.502 -36.965,61.669c-40.247,10.784 -61.738,-5.026 -73.061,-47.285l-8.627,-32.198c-11.324,-42.259 -0.617,-66.696 39.63,-77.48c34.21,-9.167 53.796,7.585 61.769,30.899l2.02,5.929l80.494,-21.568c-21.03,-78.481 -86.147,-104.17 -162.616,-83.68c-70.432,18.872 -128.068,77.452 -102.186,174.045l5.392,20.123c25.882,96.593 105.086,118.507 175.518,99.634c76.469,-20.489 120.126,-74.892 97.911,-157.801l-80.494,21.568l1.215,6.145Z"/><path d="M861.762,320.513l235.417,-0l-0,-70.833l-154.167,-0l0,-43.75l143.75,-0l0,-64.584l-143.75,0l0,-41.666l152.084,-0l-0,-70.834l-233.334,0l0,291.667Z" style="fill:#fff;"/><path d="M845.202,320.513l0,-291.667c0,-9.145 7.415,-16.56 16.56,-16.56l233.334,0c9.145,0 16.559,7.415 16.559,16.56l0,70.834c0,9.145 -7.414,16.559 -16.559,16.559l-135.524,0c0,0 0,8.547 0,8.547l127.19,0c9.146,0 16.56,7.415 16.56,16.56l0,64.584c0,9.145 -7.414,16.559 -16.56,16.559l-127.19,0c0,0 0,10.631 0,10.631l137.607,-0c9.146,-0 16.56,7.414 16.56,16.56l-0,70.833c-0,9.146 -7.414,16.56 -16.56,16.56l-235.417,-0c-9.145,-0 -16.56,-7.414 -16.56,-16.56Zm16.56,-0l235.417,-0l-0,-70.833l-154.167,-0l0,-43.75l143.75,-0l0,-64.584l-143.75,0l0,-41.666l152.084,-0l-0,-70.834l-233.334,0l0,291.667Z"/><rect x="1124.01" y="28.846" width="81.25" height="291.667" style="fill:#fff;"/><path d="M1107.45,320.513l0,-291.667c0,-9.145 7.415,-16.56 16.56,-16.56l81.25,0c9.146,0 16.56,7.415 16.56,16.56l0,291.667c0,9.146 -7.414,16.56 -16.56,16.56l-81.25,-0c-9.145,-0 -16.56,-7.414 -16.56,-16.56Zm16.56,-0l81.25,-0l0,-291.667l-81.25,0l0,291.667Z"/><path d="M1232.6,320.513l81.25,-0l-0,-87.5l72.916,-0c64.584,-0 106.25,-31.25 106.25,-89.583l0,-25c0,-58.334 -41.666,-89.584 -106.25,-89.584l-154.166,0l-0,291.667Zm81.25,-158.333l-0,-62.5l68.75,-0c16.666,-0 25,8.333 25,25l-0,12.5c-0,16.666 -8.334,25 -25,25l-68.75,-0Z" style="fill:#fff;"/><path d="M1216.04,320.513l-0,-291.667c-0,-9.145 7.414,-16.56 16.56,-16.56l154.166,0c44.529,0 79.2,13.919 100.114,38.74c14.439,17.136 22.696,39.637 22.696,67.404l0,25c0,27.766 -8.257,50.268 -22.696,67.403c-20.914,24.822 -55.585,38.74 -100.114,38.74c0,-0 -56.357,-0 -56.357,-0l0,70.94c0,9.146 -7.414,16.56 -16.559,16.56l-81.25,-0c-9.146,-0 -16.56,-7.414 -16.56,-16.56Zm16.56,-0l81.25,-0l-0,-87.5l72.916,-0c64.584,-0 106.25,-31.25 106.25,-89.583l0,-25c0,-58.334 -41.666,-89.584 -106.25,-89.584l-154.166,0l-0,291.667Zm81.25,-158.333l-0,-62.5l68.75,-0c16.666,-0 25,8.333 25,25l-0,12.5c-0,16.666 -8.334,25 -25,25l-68.75,-0Zm16.559,-16.56l52.191,-0c3.026,-0 5.527,0.113 7.04,-1.4c1.513,-1.513 1.4,-4.014 1.4,-7.04l-0,-12.5c-0,-3.027 0.113,-5.527 -1.4,-7.041c-1.513,-1.513 -4.014,-1.4 -7.04,-1.4l-52.191,0l0,29.381Z"/><path d="M1596.51,320.513l81.25,-0l0,-220.833l89.584,-0l-0,-70.834l-260.417,0l-0,70.834l89.583,-0l0,220.833Z" style="fill:#fff;"/><path d="M1579.95,320.513l0,-204.274l-73.023,0c-9.146,0 -16.56,-7.414 -16.56,-16.559l0,-70.834c0,-9.145 7.414,-16.56 16.56,-16.56l260.417,0c9.145,0 16.559,7.415 16.559,16.56l0,70.834c0,9.145 -7.414,16.559 -16.559,16.559c-0,0 -73.024,0 -73.024,0l0,204.274c0,9.146 -7.414,16.56 -16.56,16.56l-81.25,-0c-9.145,-0 -16.56,-7.414 -16.56,-16.56Zm16.56,-0l81.25,-0l0,-220.833l89.584,-0l-0,-70.834l-260.417,0l-0,70.834l89.583,-0l0,220.833Z"/><path d="M2025.42,104.123l-3.537,-0l-49.167,-75.283l-79.587,-0l93.736,132.852l-0,73.807l68.975,-0l0,-73.807l90.199,-132.852l-74.281,-0l-46.338,75.283Z" style="fill:#fff;"/><path d="M2023.29,75.992l34.365,-55.832c3.014,-4.897 8.353,-7.88 14.103,-7.88l74.281,-0c6.132,-0 11.763,3.389 14.633,8.808c2.871,5.418 2.512,11.98 -0.932,17.054l-87.34,128.64l0,68.717c0,9.145 -7.414,16.559 -16.56,16.559l-68.975,0c-9.146,0 -16.56,-7.414 -16.56,-16.559l0,-68.553l-90.707,-128.559c-3.566,-5.055 -4.018,-11.675 -1.171,-17.167c2.846,-5.492 8.516,-8.94 14.702,-8.94l79.587,-0c5.592,-0 10.807,2.822 13.865,7.505l36.709,56.207Zm2.13,28.131l-3.537,-0l-49.167,-75.283l-79.587,-0l93.736,132.852l-0,73.807l68.975,-0l0,-73.807l90.199,-132.852l-74.281,-0l-46.338,75.283Z"/><path d="M1795.68,320.513l259.75,-0l-0,-70.833l-178.5,-0l-0,-220.834l-81.25,0l-0,291.667Z" style="fill:#fff;"/><path d="M1779.12,320.513l0,-291.667c0,-9.145 7.414,-16.56 16.56,-16.56l81.25,0c9.146,0 16.56,7.415 16.56,16.56c-0,0 -0,204.274 -0,204.274l161.94,-0c9.146,-0 16.56,7.414 16.56,16.56l-0,70.833c-0,9.146 -7.414,16.56 -16.56,16.56l-259.75,-0c-9.146,-0 -16.56,-7.414 -16.56,-16.56Zm16.56,-0l259.75,-0l-0,-70.833l-178.5,-0l-0,-220.834l-81.25,0l-0,291.667Z"/></g><g><path d="M2062.02,314.403l-1.973,-0l-0,6.11l-0.801,-0l0,-6.11l-1.968,-0l-0,-0.725l4.742,0l0,0.725Z" style="fill:#fff;fill-rule:nonzero;"/><path d="M2069.67,320.513l-0.796,-0l0,-4.585c0,-0.362 0.023,-0.806 0.067,-1.33l-0.019,0c-0.076,0.308 -0.145,0.529 -0.205,0.663l-2.335,5.252l-0.391,-0l-2.331,-5.214c-0.067,-0.153 -0.135,-0.386 -0.205,-0.701l-0.019,0c0.026,0.273 0.038,0.72 0.038,1.339l0,4.576l-0.772,-0l0,-6.835l1.058,0l2.097,4.766c0.162,0.366 0.267,0.639 0.315,0.82l0.028,0c0.137,-0.375 0.247,-0.654 0.329,-0.839l2.14,-4.747l1.001,0l0,6.835Z" style="fill:#fff;fill-rule:nonzero;"/><rect x="2070.96" y="313.678" width="0.691" height="2.13" style="fill:#fff;fill-rule:nonzero;"/><path d="M2076.88,320.513l-0.781,-0l-0,-2.783c-0,-1.036 -0.378,-1.554 -1.135,-1.554c-0.39,-0 -0.714,0.148 -0.972,0.443c-0.254,0.292 -0.381,0.663 -0.381,1.111l-0,2.783l-0.782,-0l0,-4.881l0.782,0l-0,0.811l0.019,-0c0.369,-0.617 0.902,-0.925 1.601,-0.925c0.534,0 0.942,0.173 1.225,0.52c0.283,0.343 0.424,0.84 0.424,1.491l0,2.984Z" style="fill:#fff;fill-rule:nonzero;"/><path d="M2080.23,320.465c-0.185,0.102 -0.428,0.153 -0.73,0.153c-0.854,-0 -1.282,-0.477 -1.282,-1.43l0,-2.888l-0.838,-0l-0,-0.668l0.838,0l0,-1.191l0.782,-0.253l0,1.444l1.23,0l-0,0.668l-1.23,-0l0,2.75c0,0.327 0.056,0.561 0.167,0.7c0.111,0.14 0.295,0.21 0.553,0.21c0.197,0 0.367,-0.054 0.51,-0.162l-0,0.667Z" style="fill:#fff;fill-rule:nonzero;"/></g></g><g><g id="shadow-connect1" serif:id="shadow connect"><path d="M1852.13,376.902l259.838,0.183l0.874,-175.98l89.761,-115.701l-56.565,-56.564l-111.865,60.658l-61.157,-61.158l-63.841,0.532l-32.25,-0.026l-81.223,28.335l-28.345,-28.344l-260.419,70.851l89.734,89.734l0,130.831l56.602,56.602l80.691,-0.324l0.262,-220.578l62.528,0.301l8.194,0.231l-9.229,164.007l56.41,56.41Z" style="stroke:#000;stroke-width:33.33px;"/><path d="M1289.21,377.116l217.875,-282.993l-38.515,-38.516l-236.059,0.476l-27.24,-27.24l-80.986,150.016l-37.549,-37.549l-24.724,-8.37l65.107,-31.967l-3.102,-43.215l-28.912,-28.913l-233.344,93.694l-52.738,-52.738l-253.483,88.241l-16.698,-16.699l49.706,-71.136l-41.149,-41.031l-233.502,72.305l-41.862,-41.862l-251.826,261.073l56.464,56.464l81.286,-0.119l0.131,-91.814l44.401,-4.671l3.242,39.973l55.759,55.759l81.784,1.103l-56.517,-56.874l27.144,0.021l56.719,56.719l235.096,0.141l0.713,-52.748l-5.138,-38.115l57.203,57.204l203.268,-23.228l55.797,55.747l179.712,-126.504l-0.294,80.357l27.036,-9.614l56.574,56.574l52.016,-56.555l56.605,56.604Z" style="stroke:#000;stroke-width:33.33px;"/></g><g id="text-shadow1" serif:id="text shadow"><path d="M76.096,376.513l81.25,-0l-0,-91.667l70.833,0c20.833,0 29.167,8.334 29.167,29.167l-0,16.667c-0,8.333 -0,25 4.166,45.833l81.25,-0c-4.166,-20.833 -4.166,-41.667 -4.166,-54.167l-0,-20.833c-0,-35.417 -18.75,-50 -47.917,-54.167l-0,-4.166c33.333,-4.167 52.083,-25 52.083,-60.417l0,-20.833c0,-62.5 -54.166,-77.084 -106.25,-77.084l-160.416,0l-0,291.667Zm81.25,-162.5l-0,-58.333l75,-0c16.666,-0 25,8.333 25,22.916l-0,12.084c-0,15 -8.334,23.333 -25,23.333l-75,-0Z" style="fill:none;stroke:#000;stroke-width:33.33px;stroke-miterlimit:2;"/><path d="M76.096,376.513l81.25,-0l-0,-91.667l70.833,0c20.833,0 29.167,8.334 29.167,29.167l-0,16.667c-0,8.333 -0,25 4.166,45.833l81.25,-0c-4.166,-20.833 -4.166,-41.667 -4.166,-54.167l-0,-20.833c-0,-35.417 -18.75,-50 -47.917,-54.167l-0,-4.166c33.333,-4.167 52.083,-25 52.083,-60.417l0,-20.833c0,-62.5 -54.166,-77.084 -106.25,-77.084l-160.416,0l-0,291.667Zm81.25,-162.5l-0,-58.333l75,-0c16.666,-0 25,8.333 25,22.916l-0,12.084c-0,15 -8.334,23.333 -25,23.333l-75,-0Z"/><path d="M369.846,376.513l235.416,-0l0,-70.833l-154.166,-0l-0,-43.75l143.75,-0l-0,-64.584l-143.75,0l-0,-41.666l152.083,-0l-0,-70.834l-233.333,0l-0,291.667Z" style="fill:none;stroke:#000;stroke-width:33.33px;stroke-miterlimit:2;"/><path d="M369.846,376.513l235.416,-0l0,-70.833l-154.166,-0l-0,-43.75l143.75,-0l-0,-64.584l-143.75,0l-0,-41.666l152.083,-0l-0,-70.834l-233.333,0l-0,291.667Z"/><path d="M817.281,246.414c5.645,29.115 -2.755,52.502 -36.965,61.669c-40.247,10.784 -61.738,-5.026 -73.061,-47.285l-8.627,-32.198c-11.324,-42.259 -0.617,-66.696 39.63,-77.48c34.21,-9.167 53.796,7.585 61.769,30.899l2.02,5.929l80.494,-21.568c-21.03,-78.481 -86.147,-104.17 -162.616,-83.68c-70.432,18.872 -128.068,77.452 -102.186,174.045l5.392,20.123c25.882,96.593 105.086,118.507 175.518,99.634c76.469,-20.489 120.126,-74.892 97.911,-157.801l-80.494,21.568l1.215,6.145Z" style="fill:none;stroke:#000;stroke-width:33.33px;stroke-miterlimit:2;"/><path d="M817.281,246.414c5.645,29.115 -2.755,52.502 -36.965,61.669c-40.247,10.784 -61.738,-5.026 -73.061,-47.285l-8.627,-32.198c-11.324,-42.259 -0.617,-66.696 39.63,-77.48c34.21,-9.167 53.796,7.585 61.769,30.899l2.02,5.929l80.494,-21.568c-21.03,-78.481 -86.147,-104.17 -162.616,-83.68c-70.432,18.872 -128.068,77.452 -102.186,174.045l5.392,20.123c25.882,96.593 105.086,118.507 175.518,99.634c76.469,-20.489 120.126,-74.892 97.911,-157.801l-80.494,21.568l1.215,6.145Z"/><path d="M917.762,376.513l235.417,-0l-0,-70.833l-154.167,-0l0,-43.75l143.75,-0l0,-64.584l-143.75,0l0,-41.666l152.084,-0l-0,-70.834l-233.334,0l0,291.667Z" style="fill:none;stroke:#000;stroke-width:33.33px;stroke-miterlimit:2;"/><path d="M917.762,376.513l235.417,-0l-0,-70.833l-154.167,-0l0,-43.75l143.75,-0l0,-64.584l-143.75,0l0,-41.666l152.084,-0l-0,-70.834l-233.334,0l0,291.667Z"/><rect x="1180.01" y="84.846" width="81.25" height="291.667" style="fill:none;stroke:#000;stroke-width:33.33px;stroke-miterlimit:2;"/><rect x="1180.01" y="84.846" width="81.25" height="291.667"/><path d="M1288.6,376.513l81.25,-0l-0,-87.5l72.916,-0c64.584,-0 106.25,-31.25 106.25,-89.583l0,-25c0,-58.334 -41.666,-89.584 -106.25,-89.584l-154.166,0l-0,291.667Zm81.25,-158.333l-0,-62.5l68.75,-0c16.666,-0 25,8.333 25,25l-0,12.5c-0,16.666 -8.334,25 -25,25l-68.75,-0Z" style="fill:none;stroke:#000;stroke-width:33.33px;stroke-miterlimit:2;"/><path d="M1288.6,376.513l81.25,-0l-0,-87.5l72.916,-0c64.584,-0 106.25,-31.25 106.25,-89.583l0,-25c0,-58.334 -41.666,-89.584 -106.25,-89.584l-154.166,0l-0,291.667Zm81.25,-158.333l-0,-62.5l68.75,-0c16.666,-0 25,8.333 25,25l-0,12.5c-0,16.666 -8.334,25 -25,25l-68.75,-0Z"/></g><g id="text1" serif:id="text"><path d="M20.096,320.513l81.25,-0l-0,-91.667l70.833,0c20.833,0 29.167,8.334 29.167,29.167l-0,16.667c-0,8.333 -0,25 4.166,45.833l81.25,-0c-4.166,-20.833 -4.166,-41.667 -4.166,-54.167l-0,-20.833c-0,-35.417 -18.75,-50 -47.917,-54.167l-0,-4.166c33.333,-4.167 52.083,-25 52.083,-60.417l0,-20.833c0,-62.5 -54.166,-77.084 -106.25,-77.084l-160.416,0l-0,291.667Zm81.25,-162.5l-0,-58.333l75,-0c16.666,-0 25,8.333 25,22.916l-0,12.084c-0,15 -8.334,23.333 -25,23.333l-75,-0Z" style="fill:#fff;"/><path d="M274.945,189.417c2.327,1.765 4.501,3.686 6.518,5.766c10.862,11.202 17.692,27.248 17.692,50.33l0,20.833c0,11.75 -0.071,31.337 3.846,50.919c0.972,4.865 -0.287,9.91 -3.432,13.747c-3.146,3.836 -7.846,6.061 -12.807,6.061l-81.25,-0c-7.894,-0 -14.69,-5.572 -16.238,-13.312c-4.462,-22.311 -4.488,-40.157 -4.488,-49.081l-0,-16.667c-0,-4.834 0.254,-8.511 -1.921,-10.686c-2.175,-2.176 -5.852,-1.921 -10.686,-1.921l-54.274,0l0,75.107c0,9.146 -7.414,16.56 -16.559,16.56l-81.25,-0c-9.146,-0 -16.56,-7.414 -16.56,-16.56l-0,-291.667c-0,-9.145 7.414,-16.56 16.56,-16.56l160.416,0c61.278,0 122.81,20.111 122.81,93.644l0,20.833c0,22.375 -6.432,39.976 -17.619,52.809c-3.183,3.651 -6.771,6.942 -10.758,9.845Zm-254.849,131.096l81.25,-0l-0,-91.667l70.833,0c20.833,0 29.167,8.334 29.167,29.167l-0,16.667c-0,8.333 -0,25 4.166,45.833l81.25,-0c-4.166,-20.833 -4.166,-41.667 -4.166,-54.167l-0,-20.833c-0,-35.417 -18.75,-50 -47.917,-54.167l-0,-4.166c33.333,-4.167 52.083,-25 52.083,-60.417l0,-20.833c0,-62.5 -54.166,-77.084 -106.25,-77.084l-160.416,0l-0,291.667Zm81.25,-162.5l-0,-58.333l75,-0c16.666,-0 25,8.333 25,22.916l-0,12.084c-0,15 -8.334,23.333 -25,23.333l-75,-0Zm16.559,-16.56l58.441,0c3.17,0 5.759,0.018 7.344,-1.488c1.223,-1.162 1.096,-3.083 1.096,-5.285l-0,-12.084c-0,-2.001 0.127,-3.774 -1.016,-4.846c-1.604,-1.503 -4.217,-1.511 -7.424,-1.511l-58.441,0l0,25.214Z"/><path d="M313.846,320.513l235.416,-0l0,-70.833l-154.166,-0l-0,-43.75l143.75,-0l-0,-64.584l-143.75,0l-0,-41.666l152.083,-0l-0,-70.834l-233.333,0l-0,291.667Z" style="fill:#fff;"/><path d="M297.286,320.513l-0,-291.667c-0,-9.145 7.414,-16.56 16.56,-16.56l233.333,0c9.146,0 16.56,7.415 16.56,16.56l-0,70.834c-0,9.145 -7.414,16.559 -16.56,16.559l-135.524,0c0,0 0,8.547 0,8.547l127.191,0c9.145,0 16.559,7.415 16.559,16.56l0,64.584c0,9.145 -7.414,16.559 -16.559,16.559l-127.191,0c0,0 0,10.631 0,10.631l137.607,-0c9.146,-0 16.56,7.414 16.56,16.56l0,70.833c0,9.146 -7.414,16.56 -16.56,16.56l-235.416,-0c-9.146,-0 -16.56,-7.414 -16.56,-16.56Zm16.56,-0l235.416,-0l0,-70.833l-154.166,-0l-0,-43.75l143.75,-0l-0,-64.584l-143.75,0l-0,-41.666l152.083,-0l-0,-70.834l-233.333,0l-0,291.667Z"/><path d="M761.281,190.414c5.645,29.115 -2.755,52.502 -36.965,61.669c-40.247,10.784 -61.738,-5.026 -73.061,-47.285l-8.627,-32.198c-11.324,-42.259 -0.617,-66.696 39.63,-77.48c34.21,-9.167 53.796,7.585 61.769,30.899l2.02,5.929l80.494,-21.568c-21.03,-78.481 -86.147,-104.17 -162.616,-83.68c-70.432,18.872 -128.068,77.452 -102.186,174.045l5.392,20.123c25.882,96.593 105.086,118.507 175.518,99.634c76.469,-20.489 120.126,-74.892 97.911,-157.801l-80.494,21.568l1.215,6.145Z" style="fill:#fff;"/><path d="M745.029,193.592l-1.208,-6.11c-1.691,-8.553 3.538,-16.952 11.959,-19.208l80.494,-21.569c8.834,-2.367 17.914,2.876 20.281,11.71c12.579,46.946 5.872,85.745 -14.168,115.784c-19.714,29.55 -52.858,50.886 -95.452,62.299c-47.095,12.619 -97.626,8.301 -136.813,-19.965c-26.107,-18.831 -47.457,-48.349 -58.986,-91.379l-5.392,-20.123c-11.53,-43.03 -7.8,-79.268 5.394,-108.63c19.804,-44.072 61.406,-73.078 108.501,-85.697c42.534,-11.397 81.885,-9.414 113.553,5.794c32.42,15.57 57.369,44.905 69.344,89.596c2.367,8.834 -2.875,17.914 -11.709,20.282l-80.494,21.568c-8.421,2.256 -17.15,-2.403 -19.961,-10.655l-2.016,-5.917c-2.664,-7.787 -6.951,-14.715 -13.744,-18.694c-6.998,-4.098 -16.298,-4.716 -28.068,-1.563c-14.369,3.85 -24.1,9.179 -28.592,18.275c-4.847,9.812 -3.689,22.65 0.671,38.924l8.627,32.198c4.361,16.274 9.778,27.971 18.881,34.045c8.439,5.631 19.531,5.38 33.899,1.53c11.589,-3.105 19.261,-7.948 23.102,-15.151c4.04,-7.575 3.905,-16.975 1.897,-27.344Zm16.252,-3.178c5.645,29.115 -2.755,52.502 -36.965,61.669c-40.247,10.784 -61.738,-5.026 -73.061,-47.285l-8.627,-32.198c-11.324,-42.259 -0.617,-66.696 39.63,-77.48c34.21,-9.167 53.796,7.585 61.769,30.899l2.02,5.929l80.494,-21.568c-21.03,-78.481 -86.147,-104.17 -162.616,-83.68c-70.432,18.872 -128.068,77.452 -102.186,174.045l5.392,20.123c25.882,96.593 105.086,118.507 175.518,99.634c76.469,-20.489 120.126,-74.892 97.911,-157.801l-80.494,21.568l1.215,6.145Z"/><path d="M861.762,320.513l235.417,-0l-0,-70.833l-154.167,-0l0,-43.75l143.75,-0l0,-64.584l-143.75,0l0,-41.666l152.084,-0l-0,-70.834l-233.334,0l0,291.667Z" style="fill:#fff;"/><path d="M845.202,320.513l0,-291.667c0,-9.145 7.415,-16.56 16.56,-16.56l233.334,0c9.145,0 16.559,7.415 16.559,16.56l0,70.834c0,9.145 -7.414,16.559 -16.559,16.559l-135.524,0c0,0 0,8.547 0,8.547l127.19,0c9.146,0 16.56,7.415 16.56,16.56l0,64.584c0,9.145 -7.414,16.559 -16.56,16.559l-127.19,0c0,0 0,10.631 0,10.631l137.607,-0c9.146,-0 16.56,7.414 16.56,16.56l-0,70.833c-0,9.146 -7.414,16.56 -16.56,16.56l-235.417,-0c-9.145,-0 -16.56,-7.414 -16.56,-16.56Zm16.56,-0l235.417,-0l-0,-70.833l-154.167,-0l0,-43.75l143.75,-0l0,-64.584l-143.75,0l0,-41.666l152.084,-0l-0,-70.834l-233.334,0l0,291.667Z"/><rect x="1124.01" y="28.846" width="81.25" height="291.667" style="fill:#fff;"/><path d="M1107.45,320.513l0,-291.667c0,-9.145 7.415,-16.56 16.56,-16.56l81.25,0c9.146,0 16.56,7.415 16.56,16.56l0,291.667c0,9.146 -7.414,16.56 -16.56,16.56l-81.25,-0c-9.145,-0 -16.56,-7.414 -16.56,-16.56Zm16.56,-0l81.25,-0l0,-291.667l-81.25,0l0,291.667Z"/><path d="M1232.6,320.513l81.25,-0l-0,-87.5l72.916,-0c64.584,-0 106.25,-31.25 106.25,-89.583l0,-25c0,-58.334 -41.666,-89.584 -106.25,-89.584l-154.166,0l-0,291.667Zm81.25,-158.333l-0,-62.5l68.75,-0c16.666,-0 25,8.333 25,25l-0,12.5c-0,16.666 -8.334,25 -25,25l-68.75,-0Z" style="fill:#fff;"/><path d="M1216.04,320.513l-0,-291.667c-0,-9.145 7.414,-16.56 16.56,-16.56l154.166,0c44.529,0 79.2,13.919 100.114,38.74c14.439,17.136 22.696,39.637 22.696,67.404l0,25c0,27.766 -8.257,50.268 -22.696,67.403c-20.914,24.822 -55.585,38.74 -100.114,38.74c0,-0 -56.357,-0 -56.357,-0l0,70.94c0,9.146 -7.414,16.56 -16.559,16.56l-81.25,-0c-9.146,-0 -16.56,-7.414 -16.56,-16.56Zm16.56,-0l81.25,-0l-0,-87.5l72.916,-0c64.584,-0 106.25,-31.25 106.25,-89.583l0,-25c0,-58.334 -41.666,-89.584 -106.25,-89.584l-154.166,0l-0,291.667Zm81.25,-158.333l-0,-62.5l68.75,-0c16.666,-0 25,8.333 25,25l-0,12.5c-0,16.666 -8.334,25 -25,25l-68.75,-0Zm16.559,-16.56l52.191,-0c3.026,-0 5.527,0.113 7.04,-1.4c1.513,-1.513 1.4,-4.014 1.4,-7.04l-0,-12.5c-0,-3.027 0.113,-5.527 -1.4,-7.041c-1.513,-1.513 -4.014,-1.4 -7.04,-1.4l-52.191,0l0,29.381Z"/><path d="M1596.51,320.513l81.25,-0l0,-220.833l89.584,-0l-0,-70.834l-260.417,0l-0,70.834l89.583,-0l0,220.833Z" style="fill:#fff;"/><path d="M1579.95,320.513l0,-204.274l-73.023,0c-9.146,0 -16.56,-7.414 -16.56,-16.559l0,-70.834c0,-9.145 7.414,-16.56 16.56,-16.56l260.417,0c9.145,0 16.559,7.415 16.559,16.56l0,70.834c0,9.145 -7.414,16.559 -16.559,16.559c-0,0 -73.024,0 -73.024,0l0,204.274c0,9.146 -7.414,16.56 -16.56,16.56l-81.25,-0c-9.145,-0 -16.56,-7.414 -16.56,-16.56Zm16.56,-0l81.25,-0l0,-220.833l89.584,-0l-0,-70.834l-260.417,0l-0,70.834l89.583,-0l0,220.833Z"/><path d="M2025.42,104.123l-3.537,-0l-49.167,-75.283l-79.587,-0l93.736,132.852l-0,73.807l68.975,-0l0,-73.807l90.199,-132.852l-74.281,-0l-46.338,75.283Z" style="fill:#fff;"/><path d="M2023.29,75.992l34.365,-55.832c3.014,-4.897 8.353,-7.88 14.103,-7.88l74.281,-0c6.132,-0 11.763,3.389 14.633,8.808c2.871,5.418 2.512,11.98 -0.932,17.054l-87.34,128.64l0,68.717c0,9.145 -7.414,16.559 -16.56,16.559l-68.975,0c-9.146,0 -16.56,-7.414 -16.56,-16.559l0,-68.553l-90.707,-128.559c-3.566,-5.055 -4.018,-11.675 -1.171,-17.167c2.846,-5.492 8.516,-8.94 14.702,-8.94l79.587,-0c5.592,-0 10.807,2.822 13.865,7.505l36.709,56.207Zm2.13,28.131l-3.537,-0l-49.167,-75.283l-79.587,-0l93.736,132.852l-0,73.807l68.975,-0l0,-73.807l90.199,-132.852l-74.281,-0l-46.338,75.283Z"/><path d="M1795.68,320.513l259.75,-0l-0,-70.833l-178.5,-0l-0,-220.834l-81.25,0l-0,291.667Z" style="fill:#fff;"/><path d="M1779.12,320.513l0,-291.667c0,-9.145 7.414,-16.56 16.56,-16.56l81.25,0c9.146,0 16.56,7.415 16.56,16.56c-0,0 -0,204.274 -0,204.274l161.94,-0c9.146,-0 16.56,7.414 16.56,16.56l-0,70.833c-0,9.146 -7.414,16.56 -16.56,16.56l-259.75,-0c-9.146,-0 -16.56,-7.414 -16.56,-16.56Zm16.56,-0l259.75,-0l-0,-70.833l-178.5,-0l-0,-220.834l-81.25,0l-0,291.667Z"/></g><g><path d="M2062.02,314.403l-1.973,-0l-0,6.11l-0.801,-0l0,-6.11l-1.968,-0l-0,-0.725l4.742,0l0,0.725Z" style="fill:#fff;fill-rule:nonzero;"/><path d="M2069.67,320.513l-0.796,-0l0,-4.585c0,-0.362 0.023,-0.806 0.067,-1.33l-0.019,0c-0.076,0.308 -0.145,0.529 -0.205,0.663l-2.335,5.252l-0.391,-0l-2.331,-5.214c-0.067,-0.153 -0.135,-0.386 -0.205,-0.701l-0.019,0c0.026,0.273 0.038,0.72 0.038,1.339l0,4.576l-0.772,-0l0,-6.835l1.058,0l2.097,4.766c0.162,0.366 0.267,0.639 0.315,0.82l0.028,0c0.137,-0.375 0.247,-0.654 0.329,-0.839l2.14,-4.747l1.001,0l0,6.835Z" style="fill:#fff;fill-rule:nonzero;"/><rect x="2070.96" y="313.678" width="0.691" height="2.13" style="fill:#fff;fill-rule:nonzero;"/><path d="M2076.88,320.513l-0.781,-0l-0,-2.783c-0,-1.036 -0.378,-1.554 -1.135,-1.554c-0.39,-0 -0.714,0.148 -0.972,0.443c-0.254,0.292 -0.381,0.663 -0.381,1.111l-0,2.783l-0.782,-0l0,-4.881l0.782,0l-0,0.811l0.019,-0c0.369,-0.617 0.902,-0.925 1.601,-0.925c0.534,0 0.942,0.173 1.225,0.52c0.283,0.343 0.424,0.84 0.424,1.491l0,2.984Z" style="fill:#fff;fill-rule:nonzero;"/><path d="M2080.23,320.465c-0.185,0.102 -0.428,0.153 -0.73,0.153c-0.854,-0 -1.282,-0.477 -1.282,-1.43l0,-2.888l-0.838,-0l-0,-0.668l0.838,0l0,-1.191l0.782,-0.253l0,1.444l1.23,0l-0,0.668l-1.23,-0l0,2.75c0,0.327 0.056,0.561 0.167,0.7c0.111,0.14 0.295,0.21 0.553,0.21c0.197,0 0.367,-0.054 0.51,-0.162l-0,0.667Z" style="fill:#fff;fill-rule:nonzero;"/></g></g></g></svg>